# xmcd
#
# Track frame offsets: 
#        150
#        12922
#        26133
#        39844
#        51318
#        65247
#        76690
#        87186
#        99858
#        111657
#        123218
#        136418
#        147817
#        158839
#        170943
#        182948
#        195263
#        206257
#        217606
#        231880
#
# Disc length: 3256 seconds
#
# Revision: 1
# Processed by: cddbd v1.5.2PL0 Copyright (c) Steve Scherf et al.
# Submitted via: ExactAudioCopy v1.3
#
DISCID=0d0cb614
DTITLE=Various Artist - The Sun Blues Story CD2
DYEAR=2012
DGENRE=Blues
TTITLE0=Doctor Ross - Come Back Baby
TTITLE1=Rosco Gordon - Shoobie Oobie
TTITLE2=Ike Turner and The Kings Of Rhythm - I'm Lomesome Baby
TTITLE3=B.B. King - Hard Working Woman
TTITLE4=Billy Emerson - When It Rains It Pours
TTITLE5=Billy Love - Juiced
TTITLE6=James Cotton - Straighten Up Baby
TTITLE7=Willie Nix - Baker Shop Boogie
TTITLE8=Joe Hill Louis - We All Gotta Go Sometime
TTITLE9=Little Milton - If You Love Me
TTITLE10=Little Junior's Blue Flames - Feelin' Good
TTITLE11=Billy Emerson - Little Fine Healthy Thing
TTITLE12=Sammy Louis and Willie Johnson - Feel So Worried
TTITLE13=Big Memphis Ma Rainey - Baby,No No!
TTITLE14=Willie Nix - Try One More Time
TTITLE15=Billy 'Red' Love - Drop Top
TTITLE16=Rufus Thomas Jr. - Why Did You Deegee?
TTITLE17=B.B. King - She's Dynamite
TTITLE18=Eddie Snow - Bring Your Love Back Home To Me
TTITLE19=Howlin' Wolf - How Many More Years?
EXTD=
EXTT0=
EXTT1=
EXTT2=
EXTT3=
EXTT4=
EXTT5=
EXTT6=
EXTT7=
EXTT8=
EXTT9=
EXTT10=
EXTT11=
EXTT12=
EXTT13=
EXTT14=
EXTT15=
EXTT16=
EXTT17=
EXTT18=
EXTT19=
PLAYORDER=
